# xmcd
#
# Track frame offsets: 
#        150
#        19726
#        33749
#        54105
#        71496
#        89399
#        109581
#        127559
#        145149
#        160406
#
# Disc length: 2378 seconds
#
# Revision: 0
# Processed by: cddbd v1.5.2PL0 Copyright (c) Steve Scherf et al.
# Submitted via: ExactAudioCopy v1.0b1
#
DISCID=7909480a
DTITLE=Carly Simon - The Best of
DYEAR=1990
DGENRE=
TTITLE0=1. That's The Way I've Always Heard It Should Be
TTITLE1=2. The Right Thing To Do
TTITLE2=3. Mockingbird
TTITLE3=4. Legend In Your Own Time
TTITLE4=5. Haven't Got Time for the Pain
TTITLE5=6. You're So Vain
TTITLE6=7. We Have No Secrets
TTITLE7=8. Night Owl
TTITLE8=9. Anticipation
TTITLE9=10. Attitude Dancing
EXTD=
EXTT0=
EXTT1=
EXTT2=
EXTT3=
EXTT4=
EXTT5=
EXTT6=
EXTT7=
EXTT8=
EXTT9=
PLAYORDER=
